DataType=double
version=3
OpenSimVersion=4.5-2024-01-10-34fd6af
endheader
time	pelvis_tilt	pelvis_list	pelvis_rotation	pelvis_tx	pelvis_ty	pelvis_tz	hip_flexion_r	hip_adduction_r	hip_rotation_r	knee_angle_r	knee_adduction_r	knee_angle_r_beta	ankle_angle_r	subtalar_angle_r	mtp_angle_r	hip_flexion_l	hip_adduction_l	hip_rotation_l	knee_angle_l	knee_adduction_l	knee_angle_l_beta	ankle_angle_l	subtalar_angle_l	mtp_angle_l	lumbar_extension	lumbar_bending	lumbar_rotation	arm_flex_r	arm_add_r	arm_rot_r	elbow_flex_r	pro_sup_r	wrist_flex_r	wrist_dev_r	arm_flex_l	arm_add_l	arm_rot_l	elbow_flex_l	pro_sup_l	wrist_flex_l	wrist_dev_l
2.235	-0.1701701690450773	0.06134746119144868	-0.01520470017012402	0.8147486477950162	0.951378410567549	0.486358818546125	0.5925869597697564	-0.09139151964468809	-0.07069044430238047	0.1333084977932534	0.1091	0.1333084977932534	0.0916942706728949	0.1302493503167437	-0.3300483785726285	-0.03098156774959676	0.03855586953296945	-0.09300688965137424	0.3047636652967541	0.1123	0.3047636652967541	0.130935270132894	0.1749848775398589	-0.4137947945239551	0.01096881872193155	-0.01911063840199764	0.004996045412770423	-0.2406585214833904	-0.1582204528773576	-0.2687586178268187	0.4853701888329455	1.57079633	0	0	0.1050645717435954	-0.3758315287217997	0.03714281211449363	1.075672505125902	1.57079633	0	0
2.24	-0.1673200332467817	0.05700431062618787	-0.01322267744792847	0.8157721042543405	0.951101263590888	0.4868286311263206	0.5877101742408526	-0.08677792891388543	-0.07102829022289162	0.1426201159175209	0.1091	0.1426201159175209	0.07817029638776811	0.1197695602834662	-0.3249563462057132	-0.03451440021010549	0.03237351956537791	-0.09372998996588186	0.3174629555047298	0.1123	0.3174629555047298	0.1269872568533834	0.1757098099370735	-0.4225713630908049	0.008705343030141352	-0.01388143158787894	0.003949009497047996	-0.2393745055161652	-0.16021964775912	-0.2692069568110932	0.4861503702099663	1.57079633	0	0	0.1024507074136568	-0.373399683438623	0.0353038539544167	1.078960329288472	1.57079633	0	0
2.245	-0.1644375133019447	0.05259495211649005	-0.01124157220671163	0.8167980524177791	0.9508226090775577	0.4873038705228205	0.5828825452204249	-0.08211438852562118	-0.07145705535288502	0.1522828114672958	0.1091	0.1522828114672958	0.06475958143919731	0.1093821701747198	-0.3197820422749907	-0.0377889010036711	0.02608992291746245	-0.09448616788118122	0.3308718511162677	0.1123	0.3308718511162677	0.1225381893361563	0.1760777497729397	-0.4314554182868443	0.006419851608119101	-0.008558706800490652	0.002905413593163765	-0.2380014288578346	-0.1622717153491245	-0.2696155429013976	0.486931035434275	1.57079633	0	0	0.09975169847091496	-0.3708830459540131	0.03340699091117252	1.082197429096696	1.57079633	0	0
2.25	-0.1615405904340808	0.04815069366249044	-0.009276431008800091	0.8178211376202347	0.9505462991673904	0.4877835192632907	0.5781377664155707	-0.07743136183375517	-0.07197633865602174	0.1622843591736104	0.1091	0.1622843591736104	0.05159476481479462	0.09917380239741386	-0.3145749476299804	-0.04069604779163644	0.01974655004276327	-0.09526766579838833	0.3450840651007335	0.1123	0.3450840651007335	0.1174427775207947	0.1759749325625981	-0.4403422559124905	0.00412451940272425	-0.003182190841229091	0.001876727907024369	-0.2365246853606921	-0.1643688349201362	-0.2699664548726152	0.4877128248846145	1.57079633	0	0	0.09697078356376905	-0.36828649224474	0.03145987669088671	1.08533287086699	1.57079633	0	0
2.255	-0.15864643639147	0.0437016316379968	-0.007341151576091181	0.8188360649361935	0.9502762414819537	0.4882668550613719	0.5735048886894558	-0.072756658745716	-0.07258105617168134	0.1726100193791872	0.1091	0.1726100193791872	0.03880592284753787	0.08922204104744054	-0.3093764285335341	-0.04312558532310096	0.01338364394413671	-0.09606370045249357	0.3601965105917969	0.1123	0.3601965105917969	0.1115508816663908	0.1752841829679647	-0.4491172587376288	0.001830097014383879	0.002208829988782874	0.0008739969442562133	-0.2349284924856105	-0.1665031494140909	-0.2702418386748922	0.4884979362607745	1.57079633	0	0	0.09411114727949278	-0.3656147936447224	0.02946989311743959	1.088315978217707	1.57079633	0	0
2.26	-0.1557711141238181	0.03927607950109849	-0.005448179442426047	0.819837620481607	0.9500163333076443	0.4887534485503373	0.5690074112398389	-0.06811480540085812	-0.07326106896148393	0.1832415613505509	0.1091	0.1832415613505509	0.02651825913213217	0.07959343662418121	-0.3042178229328104	-0.0449685998877431	0.007039605772370422	-0.09686031602853766	0.3763053506434946	0.1123	0.3763053506434946	0.1047124009889301	0.173888146217117	-0.4576569246331678	-0.0004543387795744938	0.007576164400884444	-9.240770382674263e-05	-0.2331963056390587	-0.168666774653758	-0.2704244057609032	0.4892902011766382	1.57079633	0	0	0.09117610702012859	-0.3628726959842013	0.02744410917046839	1.091097324868424	1.57079633	0	0
2.265	-0.1529293166886525	0.034900131121322	-0.003608226656822871	0.8208206991284128	0.9497703993000443	0.4892431442143503	0.5646625185752265	-0.06352663729904109	-0.07400110326004712	0.1941563282515615	0.1091	0.1941563282515615	0.01484986093749479	0.07034201220042602	-0.2991194308425653	-0.0461201376412223	0.0007505623440696441	-0.0976402727690837	0.3935018410911124	0.1123	0.3935018410911124	0.09678253332608772	0.1716728044228963	-0.4658302480834913	-0.002721557847221584	0.01288324897951666	-0.001013038550350419	-0.2313112875023638	-0.1708517965707472	-0.2704979125424046	0.4900951132690761	1.57079633	0	0	0.08816930189029402	-0.3600650260870328	0.02538930497789214	1.093629626709735	1.57079633	0	0
2.27	-0.1501341513109658	0.03059736868044403	-0.001830025330298303	0.8217803403351975	0.9495421348686196	0.4897360258134283	0.5604804931916784	-0.05900912701973821	-0.07478097907675016	0.2053264082241543	0.1091	0.2053264082241543	0.003909574725061002	0.06150832366639386	-0.2940903986308268	-0.04648177887839045	-0.005449875895405141	-0.09838298792889588	0.4118681504219548	0.1123	0.4118681504219548	0.08762724250626949	0.1685311917152353	-0.4735004886763601	-0.004966264968182098	0.0180955510960429	-0.001879616305125634	-0.2292568136527422	-0.1730502628866037	-0.2704476035047302	0.4909198053960331	1.57079633	0	0	0.08509486896343883	-0.3571968134904219	0.02331205736832145	1.095868498791877	1.57079633	0	0
2.275	-0.1473969731123256	0.02638871330593392	-0.000120134431063533	0.8227117725140705	0.9493350579826297	0.4902323690523155	0.5564643274918326	-0.05457543691667298	-0.07557613849030359	0.2167179690822095	0.1091	0.2167179690822095	-0.006204944233418222	0.05311909519508974	-0.2891293991203938	-0.04596407843634853	-0.01153067616418683	-0.09906456989064916	0.4314733527291955	0.1123	0.4314733527291955	0.07712875864589852	0.1643672241959777	-0.4805273473378312	-0.007185102607117952	0.02318084527636574	-0.002685250340576893	-0.2270169923485514	-0.1752541758303595	-0.2702606037883188	0.4917729758288251	1.57079633	0	0	0.08195759427581027	-0.3542734127894018	0.02121887565766671	1.097773050688364	1.57079633	0	0
